<svg height="512pt" viewBox="0 0 512 512" width="512pt" xmlns="http://www.w3.org/2000/svg"><path  d="m452 155h-20v-75c0-44.113281-35.886719-80-80-80h-192c-44.113281 0-80 35.886719-80 80v75h-20c-33.085938 0-60 26.914062-60 60v117c0 33.085938 26.914062 60 60 60h176v80h-100v40h240v-40h-100v-80h176c33.085938 0 60-26.914062 60-60v-117c0-33.085938-26.914062-60-60-60zm-60 197h-272v-22c0-11.027344 8.972656-20 20-20h232c11.027344 0 20 8.972656 20 20zm-232-312h192c22.054688 0 40 17.945312 40 40v193.441406c-6.261719-2.222656-12.988281-3.441406-20-3.441406h-232c-7.011719 0-13.738281 1.21875-20 3.441406v-193.441406c0-22.054688 17.945312-40 40-40zm-120 292v-117c0-11.027344 8.972656-20 20-20h20v157h-20c-11.027344 0-20-8.972656-20-20zm432 0c0 11.027344-8.972656 20-20 20h-20v-157h20c11.027344 0 20 8.972656 20 20zm0 0"/></svg>